<svg width="204" height="44" viewBox="0 0 204 44" fill="none" xmlns="http://www.w3.org/2000/svg">
<rect width="204" height="44" rx="8" fill="#E7FAEB"/>
<path d="M46.142 28H43.892L47.9886 16.3636H50.5909L54.6932 28H52.4432L49.3352 18.75H49.2443L46.142 28ZM46.2159 23.4375H52.3523V25.1307H46.2159V23.4375ZM59.108 28.1534C58.4223 28.1534 57.8087 27.9773 57.267 27.625C56.7254 27.2727 56.2973 26.7614 55.983 26.0909C55.6686 25.4205 55.5114 24.6061 55.5114 23.6477C55.5114 22.678 55.6705 21.8598 55.9886 21.1932C56.3106 20.5227 56.7443 20.017 57.2898 19.6761C57.8352 19.3314 58.4432 19.1591 59.1136 19.1591C59.625 19.1591 60.0455 19.2462 60.375 19.4205C60.7045 19.5909 60.9659 19.7973 61.1591 20.0398C61.3523 20.2784 61.5019 20.5038 61.608 20.7159H61.6932V16.3636H63.7557V28H61.733V26.625H61.608C61.5019 26.8371 61.3485 27.0625 61.1477 27.3011C60.947 27.536 60.6818 27.7367 60.3523 27.9034C60.0227 28.0701 59.608 28.1534 59.108 28.1534ZM59.6818 26.4659C60.1174 26.4659 60.4886 26.3485 60.7955 26.1136C61.1023 25.875 61.3352 25.5436 61.4943 25.1193C61.6534 24.6951 61.733 24.2008 61.733 23.6364C61.733 23.072 61.6534 22.5814 61.4943 22.1648C61.339 21.7481 61.108 21.4242 60.8011 21.1932C60.4981 20.9621 60.125 20.8466 59.6818 20.8466C59.2235 20.8466 58.8409 20.9659 58.5341 21.2045C58.2273 21.4432 57.9962 21.7727 57.8409 22.1932C57.6856 22.6136 57.608 23.0947 57.608 23.6364C57.608 24.1818 57.6856 24.6686 57.8409 25.0966C58 25.5208 58.233 25.8561 58.5398 26.1023C58.8504 26.3447 59.2311 26.4659 59.6818 26.4659ZM69.1861 28.1534C68.5005 28.1534 67.8868 27.9773 67.3452 27.625C66.8035 27.2727 66.3755 26.7614 66.0611 26.0909C65.7467 25.4205 65.5895 24.6061 65.5895 23.6477C65.5895 22.678 65.7486 21.8598 66.0668 21.1932C66.3887 20.5227 66.8224 20.017 67.3679 19.6761C67.9134 19.3314 68.5213 19.1591 69.1918 19.1591C69.7031 19.1591 70.1236 19.2462 70.4531 19.4205C70.7827 19.5909 71.044 19.7973 71.2372 20.0398C71.4304 20.2784 71.58 20.5038 71.6861 20.7159H71.7713V16.3636H73.8338V28H71.8111V26.625H71.6861C71.58 26.8371 71.4266 27.0625 71.2259 27.3011C71.0251 27.536 70.7599 27.7367 70.4304 27.9034C70.1009 28.0701 69.6861 28.1534 69.1861 28.1534ZM69.7599 26.4659C70.1955 26.4659 70.5668 26.3485 70.8736 26.1136C71.1804 25.875 71.4134 25.5436 71.5724 25.1193C71.7315 24.6951 71.8111 24.2008 71.8111 23.6364C71.8111 23.072 71.7315 22.5814 71.5724 22.1648C71.4171 21.7481 71.1861 21.4242 70.8793 21.1932C70.5762 20.9621 70.2031 20.8466 69.7599 20.8466C69.3016 20.8466 68.919 20.9659 68.6122 21.2045C68.3054 21.4432 68.0743 21.7727 67.919 22.1932C67.7637 22.6136 67.6861 23.0947 67.6861 23.6364C67.6861 24.1818 67.7637 24.6686 67.919 25.0966C68.0781 25.5208 68.3111 25.8561 68.6179 26.1023C68.9285 26.3447 69.3092 26.4659 69.7599 26.4659ZM84.3523 19.2727V20.8636H79.3352V19.2727H84.3523ZM80.5739 17.1818H82.6307V25.375C82.6307 25.6515 82.6723 25.8636 82.7557 26.0114C82.8428 26.1553 82.9564 26.2538 83.0966 26.3068C83.2367 26.3598 83.392 26.3864 83.5625 26.3864C83.6913 26.3864 83.8087 26.3769 83.9148 26.358C84.0246 26.339 84.108 26.322 84.1648 26.3068L84.5114 27.9148C84.4015 27.9527 84.2443 27.9943 84.0398 28.0398C83.839 28.0852 83.5928 28.1117 83.3011 28.1193C82.786 28.1345 82.322 28.0568 81.9091 27.8864C81.4962 27.7121 81.1686 27.4432 80.9261 27.0795C80.6875 26.7159 80.5701 26.2614 80.5739 25.7159V17.1818ZM89.7855 28.1705C88.9332 28.1705 88.1946 27.983 87.5696 27.608C86.9446 27.233 86.4598 26.7083 86.1151 26.0341C85.7741 25.3598 85.6037 24.572 85.6037 23.6705C85.6037 22.7689 85.7741 21.9792 86.1151 21.3011C86.4598 20.6231 86.9446 20.0966 87.5696 19.7216C88.1946 19.3466 88.9332 19.1591 89.7855 19.1591C90.6378 19.1591 91.3764 19.3466 92.0014 19.7216C92.6264 20.0966 93.1094 20.6231 93.4503 21.3011C93.795 21.9792 93.9673 22.7689 93.9673 23.6705C93.9673 24.572 93.795 25.3598 93.4503 26.0341C93.1094 26.7083 92.6264 27.233 92.0014 27.608C91.3764 27.983 90.6378 28.1705 89.7855 28.1705ZM89.7969 26.5227C90.259 26.5227 90.6454 26.3958 90.956 26.142C91.2666 25.8845 91.4976 25.5398 91.6491 25.108C91.8045 24.6761 91.8821 24.1951 91.8821 23.6648C91.8821 23.1307 91.8045 22.6477 91.6491 22.2159C91.4976 21.7803 91.2666 21.4337 90.956 21.1761C90.6454 20.9186 90.259 20.7898 89.7969 20.7898C89.3234 20.7898 88.9295 20.9186 88.6151 21.1761C88.3045 21.4337 88.0715 21.7803 87.9162 22.2159C87.7647 22.6477 87.6889 23.1307 87.6889 23.6648C87.6889 24.1951 87.7647 24.6761 87.9162 25.108C88.0715 25.5398 88.3045 25.8845 88.6151 26.142C88.9295 26.3958 89.3234 26.5227 89.7969 26.5227ZM103.489 28.1705C102.617 28.1705 101.869 27.9792 101.244 27.5966C100.623 27.214 100.144 26.6856 99.8068 26.0114C99.4735 25.3333 99.3068 24.553 99.3068 23.6705C99.3068 22.7841 99.4773 22.0019 99.8182 21.3239C100.159 20.642 100.64 20.1117 101.261 19.733C101.886 19.3504 102.625 19.1591 103.477 19.1591C104.186 19.1591 104.813 19.2898 105.358 19.5511C105.907 19.8087 106.345 20.1742 106.67 20.6477C106.996 21.1174 107.182 21.6667 107.227 22.2955H105.261C105.182 21.875 104.992 21.5246 104.693 21.2443C104.398 20.9602 104.002 20.8182 103.506 20.8182C103.085 20.8182 102.716 20.9318 102.398 21.1591C102.08 21.3826 101.831 21.7045 101.653 22.125C101.479 22.5455 101.392 23.0492 101.392 23.6364C101.392 24.2311 101.479 24.7424 101.653 25.1705C101.828 25.5947 102.072 25.9223 102.386 26.1534C102.705 26.3807 103.078 26.4943 103.506 26.4943C103.809 26.4943 104.08 26.4375 104.318 26.3239C104.561 26.2064 104.763 26.0379 104.926 25.8182C105.089 25.5985 105.201 25.3314 105.261 25.017H107.227C107.178 25.6345 106.996 26.1818 106.682 26.6591C106.367 27.1326 105.939 27.5038 105.398 27.7727C104.856 28.0379 104.22 28.1705 103.489 28.1705ZM111.428 28.1761C110.875 28.1761 110.376 28.0777 109.933 27.8807C109.494 27.6799 109.145 27.3845 108.888 26.9943C108.634 26.6042 108.507 26.1231 108.507 25.5511C108.507 25.0587 108.598 24.6515 108.78 24.3295C108.962 24.0076 109.21 23.75 109.524 23.5568C109.839 23.3636 110.193 23.2178 110.587 23.1193C110.984 23.017 111.395 22.9432 111.82 22.8977C112.331 22.8447 112.746 22.7973 113.064 22.7557C113.382 22.7102 113.613 22.642 113.757 22.5511C113.905 22.4564 113.979 22.3106 113.979 22.1136V22.0795C113.979 21.6515 113.852 21.3201 113.598 21.0852C113.344 20.8504 112.979 20.733 112.501 20.733C111.998 20.733 111.598 20.8428 111.303 21.0625C111.011 21.2822 110.814 21.5417 110.712 21.8409L108.791 21.5682C108.943 21.0379 109.193 20.5947 109.541 20.2386C109.89 19.8788 110.316 19.6098 110.82 19.4318C111.323 19.25 111.88 19.1591 112.49 19.1591C112.911 19.1591 113.329 19.2083 113.746 19.3068C114.162 19.4053 114.543 19.5682 114.888 19.7955C115.232 20.0189 115.509 20.3239 115.717 20.7102C115.929 21.0966 116.036 21.5795 116.036 22.1591V28H114.058V26.8011H113.99C113.865 27.0436 113.689 27.2708 113.462 27.483C113.238 27.6913 112.956 27.8598 112.615 27.9886C112.278 28.1136 111.882 28.1761 111.428 28.1761ZM111.962 26.6648C112.375 26.6648 112.732 26.5833 113.036 26.4205C113.339 26.2538 113.571 26.0341 113.734 25.7614C113.901 25.4886 113.984 25.1913 113.984 24.8693V23.8409C113.92 23.8939 113.81 23.9432 113.655 23.9886C113.503 24.0341 113.333 24.0739 113.143 24.108C112.954 24.142 112.767 24.1723 112.581 24.1989C112.395 24.2254 112.234 24.2481 112.098 24.267C111.791 24.3087 111.517 24.3769 111.274 24.4716C111.032 24.5663 110.84 24.6989 110.7 24.8693C110.56 25.036 110.49 25.2519 110.49 25.517C110.49 25.8958 110.628 26.1818 110.905 26.375C111.181 26.5682 111.534 26.6648 111.962 26.6648ZM118.104 28V19.2727H120.098V20.7273H120.189C120.348 20.2235 120.621 19.8352 121.007 19.5625C121.397 19.286 121.842 19.1477 122.342 19.1477C122.456 19.1477 122.583 19.1534 122.723 19.1648C122.867 19.1723 122.986 19.1856 123.081 19.2045V21.0966C122.994 21.0663 122.856 21.0398 122.666 21.017C122.481 20.9905 122.301 20.9773 122.126 20.9773C121.751 20.9773 121.414 21.0587 121.115 21.2216C120.82 21.3807 120.587 21.6023 120.416 21.8864C120.246 22.1705 120.161 22.4981 120.161 22.8693V28H118.104ZM129.274 19.2727V20.8636H124.257V19.2727H129.274ZM125.496 17.1818H127.553V25.375C127.553 25.6515 127.594 25.8636 127.678 26.0114C127.765 26.1553 127.878 26.2538 128.018 26.3068C128.159 26.3598 128.314 26.3864 128.484 26.3864C128.613 26.3864 128.731 26.3769 128.837 26.358C128.946 26.339 129.03 26.322 129.087 26.3068L129.433 27.9148C129.323 27.9527 129.166 27.9943 128.962 28.0398C128.761 28.0852 128.515 28.1117 128.223 28.1193C127.708 28.1345 127.244 28.0568 126.831 27.8864C126.418 27.7121 126.09 27.4432 125.848 27.0795C125.609 26.7159 125.492 26.2614 125.496 25.7159V17.1818Z" fill="#3B944E"/>
<path d="M142.5 13.6606C142.04 13.6606 141.667 14.0337 141.667 14.4939C141.667 14.9541 142.04 15.3272 142.5 15.3272V13.6606ZM144.41 14.4939L145.215 14.2761C145.116 13.9128 144.787 13.6606 144.41 13.6606V14.4939ZM147.515 25.9566L146.711 26.1744C146.819 26.5753 147.206 26.835 147.618 26.7835L147.515 25.9566ZM157.067 24.7626L157.171 25.5895C157.524 25.5452 157.811 25.2807 157.883 24.9314L157.067 24.7626ZM158.5 17.8372L159.316 18.006C159.367 17.7606 159.304 17.5053 159.146 17.311C158.988 17.1166 158.751 17.0038 158.5 17.0038V17.8372ZM145.316 17.8372L144.512 18.055V18.055L145.316 17.8372ZM142.5 15.3272H144.41V13.6606H142.5V15.3272ZM147.618 26.7835L157.171 25.5895L156.964 23.9357L147.412 25.1297L147.618 26.7835ZM157.883 24.9314L159.316 18.006L157.684 17.6683L156.251 24.5937L157.883 24.9314ZM143.606 14.7117L144.512 18.055L146.12 17.6193L145.215 14.2761L143.606 14.7117ZM144.512 18.055L146.711 26.1744L148.319 25.7387L146.12 17.6193L144.512 18.055ZM158.5 17.0038H145.316V18.6705H158.5V17.0038ZM149.667 29.0833C149.667 29.3134 149.48 29.5 149.25 29.5V31.1666C150.401 31.1666 151.333 30.2339 151.333 29.0833H149.667ZM149.25 29.5C149.02 29.5 148.833 29.3134 148.833 29.0833H147.167C147.167 30.2339 148.099 31.1666 149.25 31.1666V29.5ZM148.833 29.0833C148.833 28.8532 149.02 28.6666 149.25 28.6666V27C148.099 27 147.167 27.9327 147.167 29.0833H148.833ZM149.25 28.6666C149.48 28.6666 149.667 28.8532 149.667 29.0833H151.333C151.333 27.9327 150.401 27 149.25 27V28.6666ZM156.333 29.0833C156.333 29.3134 156.147 29.5 155.917 29.5V31.1666C157.067 31.1666 158 30.2339 158 29.0833H156.333ZM155.917 29.5C155.687 29.5 155.5 29.3134 155.5 29.0833H153.833C153.833 30.2339 154.766 31.1666 155.917 31.1666V29.5ZM155.5 29.0833C155.5 28.8532 155.687 28.6666 155.917 28.6666V27C154.766 27 153.833 27.9327 153.833 29.0833H155.5ZM155.917 28.6666C156.147 28.6666 156.333 28.8532 156.333 29.0833H158C158 27.9327 157.067 27 155.917 27V28.6666Z" fill="#3B944E"/>
</svg>
