<svg width="144" height="44" viewBox="0 0 144 44" fill="none" xmlns="http://www.w3.org/2000/svg">
<rect width="144" height="44" rx="8" fill="#54B46A"/>
<path d="M51.108 20.2898H48.983C48.9223 19.9413 48.8106 19.6326 48.6477 19.3636C48.4848 19.0909 48.2822 18.8598 48.0398 18.6705C47.7973 18.4811 47.5208 18.339 47.2102 18.2443C46.9034 18.1458 46.572 18.0966 46.2159 18.0966C45.5833 18.0966 45.0227 18.2557 44.5341 18.5739C44.0455 18.8883 43.6629 19.3504 43.3864 19.9602C43.1098 20.5663 42.9716 21.3068 42.9716 22.1818C42.9716 23.072 43.1098 23.822 43.3864 24.4318C43.6667 25.0379 44.0492 25.4962 44.5341 25.8068C45.0227 26.1136 45.5814 26.267 46.2102 26.267C46.5587 26.267 46.8845 26.2216 47.1875 26.1307C47.4943 26.036 47.7689 25.8977 48.0114 25.7159C48.2576 25.5341 48.464 25.3106 48.6307 25.0455C48.8011 24.7803 48.9186 24.4773 48.983 24.1364L51.108 24.1477C51.0284 24.7008 50.8561 25.2197 50.5909 25.7045C50.3295 26.1894 49.9867 26.6174 49.5625 26.9886C49.1383 27.3561 48.642 27.6439 48.0739 27.8523C47.5057 28.0568 46.875 28.1591 46.1818 28.1591C45.1591 28.1591 44.2462 27.9223 43.4432 27.4489C42.6402 26.9754 42.0076 26.2917 41.5455 25.3977C41.0833 24.5038 40.8523 23.4318 40.8523 22.1818C40.8523 20.928 41.0852 19.8561 41.5511 18.9659C42.017 18.072 42.6515 17.3883 43.4545 16.9148C44.2576 16.4413 45.1667 16.2045 46.1818 16.2045C46.8295 16.2045 47.4318 16.2955 47.9886 16.4773C48.5455 16.6591 49.0417 16.9261 49.4773 17.2784C49.9129 17.6269 50.2708 18.0549 50.5511 18.5625C50.8352 19.0663 51.0208 19.642 51.108 20.2898ZM55.4588 28.1761C54.9058 28.1761 54.4077 28.0777 53.9645 27.8807C53.5251 27.6799 53.1766 27.3845 52.919 26.9943C52.6652 26.6042 52.5384 26.1231 52.5384 25.5511C52.5384 25.0587 52.6293 24.6515 52.8111 24.3295C52.9929 24.0076 53.241 23.75 53.5554 23.5568C53.8698 23.3636 54.224 23.2178 54.6179 23.1193C55.0156 23.017 55.4266 22.9432 55.8509 22.8977C56.3622 22.8447 56.777 22.7973 57.0952 22.7557C57.4134 22.7102 57.6444 22.642 57.7884 22.5511C57.9361 22.4564 58.0099 22.3106 58.0099 22.1136V22.0795C58.0099 21.6515 57.883 21.3201 57.6293 21.0852C57.3755 20.8504 57.0099 20.733 56.5327 20.733C56.0289 20.733 55.6293 20.8428 55.3338 21.0625C55.0421 21.2822 54.8452 21.5417 54.7429 21.8409L52.8224 21.5682C52.974 21.0379 53.224 20.5947 53.5724 20.2386C53.9209 19.8788 54.3471 19.6098 54.8509 19.4318C55.3546 19.25 55.9115 19.1591 56.5213 19.1591C56.9418 19.1591 57.3603 19.2083 57.777 19.3068C58.1937 19.4053 58.5743 19.5682 58.919 19.7955C59.2637 20.0189 59.5402 20.3239 59.7486 20.7102C59.9607 21.0966 60.0668 21.5795 60.0668 22.1591V28H58.0895V26.8011H58.0213C57.8963 27.0436 57.7202 27.2708 57.4929 27.483C57.2694 27.6913 56.9872 27.8598 56.6463 27.9886C56.3092 28.1136 55.9134 28.1761 55.4588 28.1761ZM55.9929 26.6648C56.4058 26.6648 56.7637 26.5833 57.0668 26.4205C57.3698 26.2538 57.6027 26.0341 57.7656 25.7614C57.9323 25.4886 58.0156 25.1913 58.0156 24.8693V23.8409C57.9512 23.8939 57.8414 23.9432 57.6861 23.9886C57.5346 24.0341 57.3641 24.0739 57.1747 24.108C56.9853 24.142 56.7978 24.1723 56.6122 24.1989C56.4266 24.2254 56.2656 24.2481 56.1293 24.267C55.8224 24.3087 55.5478 24.3769 55.3054 24.4716C55.063 24.5663 54.8717 24.6989 54.7315 24.8693C54.5914 25.036 54.5213 25.2519 54.5213 25.517C54.5213 25.8958 54.6596 26.1818 54.9361 26.375C55.2126 26.5682 55.5649 26.6648 55.9929 26.6648ZM62.1349 28V19.2727H64.1293V20.7273H64.2202C64.3793 20.2235 64.652 19.8352 65.0384 19.5625C65.4285 19.286 65.8736 19.1477 66.3736 19.1477C66.4872 19.1477 66.6141 19.1534 66.7543 19.1648C66.8982 19.1723 67.0175 19.1856 67.1122 19.2045V21.0966C67.0251 21.0663 66.8868 21.0398 66.6974 21.017C66.5118 20.9905 66.3319 20.9773 66.1577 20.9773C65.7827 20.9773 65.4455 21.0587 65.1463 21.2216C64.8509 21.3807 64.6179 21.6023 64.4474 21.8864C64.277 22.1705 64.1918 22.4981 64.1918 22.8693V28H62.1349ZM73.3054 19.2727V20.8636H68.2884V19.2727H73.3054ZM69.527 17.1818H71.5838V25.375C71.5838 25.6515 71.6255 25.8636 71.7088 26.0114C71.7959 26.1553 71.9096 26.2538 72.0497 26.3068C72.1899 26.3598 72.3452 26.3864 72.5156 26.3864C72.6444 26.3864 72.7618 26.3769 72.8679 26.358C72.9777 26.339 73.0611 26.322 73.1179 26.3068L73.4645 27.9148C73.3546 27.9527 73.1974 27.9943 72.9929 28.0398C72.7921 28.0852 72.5459 28.1117 72.2543 28.1193C71.7391 28.1345 71.2751 28.0568 70.8622 27.8864C70.4493 27.7121 70.1217 27.4432 69.8793 27.0795C69.6406 26.7159 69.5232 26.2614 69.527 25.7159V17.1818Z" fill="white"/>
<path d="M86 13.6606C85.5398 13.6606 85.1667 14.0337 85.1667 14.4939C85.1667 14.9541 85.5398 15.3272 86 15.3272V13.6606ZM87.9105 14.4939L88.7148 14.2761C88.6165 13.9128 88.2868 13.6606 87.9105 13.6606V14.4939ZM91.015 25.9566L90.2106 26.1744C90.3192 26.5753 90.7063 26.835 91.1183 26.7835L91.015 25.9566ZM100.567 24.7626L100.671 25.5895C101.024 25.5452 101.311 25.2807 101.383 24.9314L100.567 24.7626ZM102 17.8372L102.816 18.006C102.867 17.7606 102.804 17.5053 102.646 17.311C102.488 17.1166 102.251 17.0038 102 17.0038V17.8372ZM88.816 17.8372L88.0116 18.055V18.055L88.816 17.8372ZM86 15.3272H87.9105V13.6606H86V15.3272ZM91.1183 26.7835L100.671 25.5895L100.464 23.9357L90.9116 25.1297L91.1183 26.7835ZM101.383 24.9314L102.816 18.006L101.184 17.6683L99.7511 24.5937L101.383 24.9314ZM87.1061 14.7117L88.0116 18.055L89.6203 17.6193L88.7148 14.2761L87.1061 14.7117ZM88.0116 18.055L90.2106 26.1744L91.8193 25.7387L89.6203 17.6193L88.0116 18.055ZM102 17.0038H88.816V18.6705H102V17.0038ZM93.1667 29.0833C93.1667 29.3134 92.9802 29.5 92.75 29.5V31.1666C93.9006 31.1666 94.8334 30.2339 94.8334 29.0833H93.1667ZM92.75 29.5C92.5199 29.5 92.3334 29.3134 92.3334 29.0833H90.6667C90.6667 30.2339 91.5994 31.1666 92.75 31.1666V29.5ZM92.3334 29.0833C92.3334 28.8532 92.5199 28.6666 92.75 28.6666V27C91.5994 27 90.6667 27.9327 90.6667 29.0833H92.3334ZM92.75 28.6666C92.9802 28.6666 93.1667 28.8532 93.1667 29.0833H94.8334C94.8334 27.9327 93.9006 27 92.75 27V28.6666ZM99.8334 29.0833C99.8334 29.3134 99.6468 29.5 99.4167 29.5V31.1666C100.567 31.1666 101.5 30.2339 101.5 29.0833H99.8334ZM99.4167 29.5C99.1866 29.5 99 29.3134 99 29.0833H97.3334C97.3334 30.2339 98.2661 31.1666 99.4167 31.1666V29.5ZM99 29.0833C99 28.8532 99.1866 28.6666 99.4167 28.6666V27C98.2661 27 97.3334 27.9327 97.3334 29.0833H99ZM99.4167 28.6666C99.6468 28.6666 99.8334 28.8532 99.8334 29.0833H101.5C101.5 27.9327 100.567 27 99.4167 27V28.6666Z" fill="white"/>
</svg>
